<svg xmlns="http://www.w3.org/2000/svg" version="1.1" xmlns:xlink="http://www.w3.org/1999/xlink" xmlns:svgjs="http://svgjs.dev/svgjs" width="1440" height="560" preserveAspectRatio="none" viewBox="0 0 1440 560"><g mask="url(&quot;#SvgjsMask1000&quot;)" fill="none"><rect width="1440" height="560" x="0" y="0" fill="#0e2a47"></rect><path d="M-67.26 514.94L-67.26 514.94" stroke="#132e65" stroke-width="1.5"></path><path d="M-67.26 514.94L-66.56 658.01" stroke="#132e65" stroke-width="1.5"></path><path d="M-67.26 514.94L57.72 398.96" stroke="#132e65" stroke-width="1.5"></path><path d="M-67.26 514.94L37.54 663.94" stroke="#132e65" stroke-width="1.5"></path><path d="M-67.26 514.94L238.68 494.92" stroke="#132e65" stroke-width="1.5"></path><path d="M-67.26 514.94L244.06 377.12" stroke="#132e65" stroke-width="1.5"></path><path d="M-67.26 514.94L363.01 507.43" stroke="#132e65" stroke-width="1.5"></path><path d="M-66.56 658.01L-66.56 658.01" stroke="#132e65" stroke-width="1.5"></path><path d="M-66.56 658.01L37.54 663.94" stroke="#132e65" stroke-width="1.5"></path><path d="M57.72 398.96L57.72 398.96" stroke="#132e65" stroke-width="1.5"></path><path d="M57.72 398.96L244.06 377.12" stroke="#132e65" stroke-width="1.5"></path><path d="M57.72 398.96L238.68 494.92" stroke="#132e65" stroke-width="1.5"></path><path d="M57.72 398.96L37.54 663.94" stroke="#132e65" stroke-width="1.5"></path><path d="M37.54 663.94L37.54 663.94" stroke="#132e65" stroke-width="1.5"></path><path d="M37.54 663.94L238.68 494.92" stroke="#132e65" stroke-width="1.5"></path><path d="M244.06 377.12L244.06 377.12" stroke="#132e65" stroke-width="1.5"></path><path d="M244.06 377.12L348.96 394.54" stroke="#132e65" stroke-width="1.5"></path><path d="M244.06 377.12L238.68 494.92" stroke="#132e65" stroke-width="1.5"></path><path d="M244.06 377.12L363.01 507.43" stroke="#132e65" stroke-width="1.5"></path><path d="M244.06 377.12L527.23 504.95" stroke="#132e65" stroke-width="1.5"></path><path d="M238.68 494.92L238.68 494.92" stroke="#132e65" stroke-width="1.5"></path><path d="M238.68 494.92L363.01 507.43" stroke="#132e65" stroke-width="1.5"></path><path d="M348.96 394.54L348.96 394.54" stroke="#132e65" stroke-width="1.5"></path><path d="M348.96 394.54L363.01 507.43" stroke="#132e65" stroke-width="1.5"></path><path d="M363.01 507.43L363.01 507.43" stroke="#132e65" stroke-width="1.5"></path><path d="M363.01 507.43L527.23 504.95" stroke="#132e65" stroke-width="1.5"></path><path d="M363.01 507.43L344.82 673.38" stroke="#132e65" stroke-width="1.5"></path><path d="M344.82 673.38L344.82 673.38" stroke="#132e65" stroke-width="1.5"></path><path d="M344.82 673.38L494.12 649.78" stroke="#132e65" stroke-width="1.5"></path><path d="M344.82 673.38L238.68 494.92" stroke="#132e65" stroke-width="1.5"></path><path d="M344.82 673.38L527.23 504.95" stroke="#132e65" stroke-width="1.5"></path><path d="M344.82 673.38L348.96 394.54" stroke="#132e65" stroke-width="1.5"></path><path d="M344.82 673.38L37.54 663.94" stroke="#132e65" stroke-width="1.5"></path><path d="M527.23 504.95L527.23 504.95" stroke="#132e65" stroke-width="1.5"></path><path d="M527.23 504.95L654.76 555.49" stroke="#132e65" stroke-width="1.5"></path><path d="M527.23 504.95L494.12 649.78" stroke="#132e65" stroke-width="1.5"></path><path d="M494.12 649.78L494.12 649.78" stroke="#132e65" stroke-width="1.5"></path><path d="M494.12 649.78L662.72 705.14" stroke="#132e65" stroke-width="1.5"></path><path d="M709.95 251.92L709.95 251.92" stroke="#132e65" stroke-width="1.5"></path><path d="M709.95 251.92L799.5 234.67" stroke="#132e65" stroke-width="1.5"></path><path d="M709.95 251.92L661.9 393.21" stroke="#132e65" stroke-width="1.5"></path><path d="M709.95 251.92L827.49 348.44" stroke="#132e65" stroke-width="1.5"></path><path d="M661.9 393.21L661.9 393.21" stroke="#132e65" stroke-width="1.5"></path><path d="M661.9 393.21L654.76 555.49" stroke="#132e65" stroke-width="1.5"></path><path d="M661.9 393.21L827.49 348.44" stroke="#132e65" stroke-width="1.5"></path><path d="M661.9 393.21L527.23 504.95" stroke="#132e65" stroke-width="1.5"></path><path d="M661.9 393.21L829.48 505.38" stroke="#132e65" stroke-width="1.5"></path><path d="M654.76 555.49L654.76 555.49" stroke="#132e65" stroke-width="1.5"></path><path d="M654.76 555.49L662.72 705.14" stroke="#132e65" stroke-width="1.5"></path><path d="M654.76 555.49L829.48 505.38" stroke="#132e65" stroke-width="1.5"></path><path d="M662.72 705.14L662.72 705.14" stroke="#132e65" stroke-width="1.5"></path><path d="M662.72 705.14L807.39 672.42" stroke="#132e65" stroke-width="1.5"></path><path d="M662.72 705.14L527.23 504.95" stroke="#132e65" stroke-width="1.5"></path><path d="M662.72 705.14L829.48 505.38" stroke="#132e65" stroke-width="1.5"></path><path d="M662.72 705.14L961.97 690.66" stroke="#132e65" stroke-width="1.5"></path><path d="M799.5 234.67L799.5 234.67" stroke="#132e65" stroke-width="1.5"></path><path d="M799.5 234.67L827.49 348.44" stroke="#132e65" stroke-width="1.5"></path><path d="M799.5 234.67L661.9 393.21" stroke="#132e65" stroke-width="1.5"></path><path d="M799.5 234.67L1007.75 192.09" stroke="#132e65" stroke-width="1.5"></path><path d="M799.5 234.67L938.09 399.21" stroke="#132e65" stroke-width="1.5"></path><path d="M827.49 348.44L827.49 348.44" stroke="#132e65" stroke-width="1.5"></path><path d="M827.49 348.44L938.09 399.21" stroke="#132e65" stroke-width="1.5"></path><path d="M829.48 505.38L829.48 505.38" stroke="#132e65" stroke-width="1.5"></path><path d="M829.48 505.38L944.82 558" stroke="#132e65" stroke-width="1.5"></path><path d="M829.48 505.38L938.09 399.21" stroke="#132e65" stroke-width="1.5"></path><path d="M807.39 672.42L807.39 672.42" stroke="#132e65" stroke-width="1.5"></path><path d="M807.39 672.42L961.97 690.66" stroke="#132e65" stroke-width="1.5"></path><path d="M807.39 672.42L829.48 505.38" stroke="#132e65" stroke-width="1.5"></path><path d="M807.39 672.42L944.82 558" stroke="#132e65" stroke-width="1.5"></path><path d="M807.39 672.42L654.76 555.49" stroke="#132e65" stroke-width="1.5"></path><path d="M955.48 -41.34L955.48 -41.34" stroke="#132e65" stroke-width="1.5"></path><path d="M955.48 -41.34L1103.23 -74.79" stroke="#132e65" stroke-width="1.5"></path><path d="M955.48 -41.34L1000.93 104.15" stroke="#132e65" stroke-width="1.5"></path><path d="M955.48 -41.34L1125.59 41.58" stroke="#132e65" stroke-width="1.5"></path><path d="M955.48 -41.34L1007.75 192.09" stroke="#132e65" stroke-width="1.5"></path><path d="M955.48 -41.34L1119.53 203.69" stroke="#132e65" stroke-width="1.5"></path><path d="M955.48 -41.34L799.5 234.67" stroke="#132e65" stroke-width="1.5"></path><path d="M1000.93 104.15L1000.93 104.15" stroke="#132e65" stroke-width="1.5"></path><path d="M1000.93 104.15L1007.75 192.09" stroke="#132e65" stroke-width="1.5"></path><path d="M1000.93 104.15L1125.59 41.58" stroke="#132e65" stroke-width="1.5"></path><path d="M1007.75 192.09L1007.75 192.09" stroke="#132e65" stroke-width="1.5"></path><path d="M1007.75 192.09L1119.53 203.69" stroke="#132e65" stroke-width="1.5"></path><path d="M1007.75 192.09L1125.59 41.58" stroke="#132e65" stroke-width="1.5"></path><path d="M938.09 399.21L938.09 399.21" stroke="#132e65" stroke-width="1.5"></path><path d="M938.09 399.21L944.82 558" stroke="#132e65" stroke-width="1.5"></path><path d="M944.82 558L944.82 558" stroke="#132e65" stroke-width="1.5"></path><path d="M944.82 558L961.97 690.66" stroke="#132e65" stroke-width="1.5"></path><path d="M944.82 558L1091.52 640.61" stroke="#132e65" stroke-width="1.5"></path><path d="M961.97 690.66L961.97 690.66" stroke="#132e65" stroke-width="1.5"></path><path d="M961.97 690.66L1091.52 640.61" stroke="#132e65" stroke-width="1.5"></path><path d="M1103.23 -74.79L1103.23 -74.79" stroke="#132e65" stroke-width="1.5"></path><path d="M1103.23 -74.79L1125.59 41.58" stroke="#132e65" stroke-width="1.5"></path><path d="M1103.23 -74.79L1293.52 -57.9" stroke="#132e65" stroke-width="1.5"></path><path d="M1103.23 -74.79L1000.93 104.15" stroke="#132e65" stroke-width="1.5"></path><path d="M1103.23 -74.79L1251.15 101.56" stroke="#132e65" stroke-width="1.5"></path><path d="M1125.59 41.58L1125.59 41.58" stroke="#132e65" stroke-width="1.5"></path><path d="M1125.59 41.58L1251.15 101.56" stroke="#132e65" stroke-width="1.5"></path><path d="M1125.59 41.58L1119.53 203.69" stroke="#132e65" stroke-width="1.5"></path><path d="M1119.53 203.69L1119.53 203.69" stroke="#132e65" stroke-width="1.5"></path><path d="M1119.53 203.69L1000.93 104.15" stroke="#132e65" stroke-width="1.5"></path><path d="M1119.53 203.69L1118.52 368.21" stroke="#132e65" stroke-width="1.5"></path><path d="M1118.52 368.21L1118.52 368.21" stroke="#132e65" stroke-width="1.5"></path><path d="M1118.52 368.21L1133.23 524.88" stroke="#132e65" stroke-width="1.5"></path><path d="M1118.52 368.21L1276.46 360.37" stroke="#132e65" stroke-width="1.5"></path><path d="M1118.52 368.21L938.09 399.21" stroke="#132e65" stroke-width="1.5"></path><path d="M1133.23 524.88L1133.23 524.88" stroke="#132e65" stroke-width="1.5"></path><path d="M1133.23 524.88L1091.52 640.61" stroke="#132e65" stroke-width="1.5"></path><path d="M1133.23 524.88L1311.98 525.49" stroke="#132e65" stroke-width="1.5"></path><path d="M1133.23 524.88L944.82 558" stroke="#132e65" stroke-width="1.5"></path><path d="M1133.23 524.88L1276.46 360.37" stroke="#132e65" stroke-width="1.5"></path><path d="M1091.52 640.61L1091.52 640.61" stroke="#132e65" stroke-width="1.5"></path><path d="M1091.52 640.61L1303.83 703.01" stroke="#132e65" stroke-width="1.5"></path><path d="M1091.52 640.61L1311.98 525.49" stroke="#132e65" stroke-width="1.5"></path><path d="M1091.52 640.61L1118.52 368.21" stroke="#132e65" stroke-width="1.5"></path><path d="M1293.52 -57.9L1293.52 -57.9" stroke="#132e65" stroke-width="1.5"></path><path d="M1293.52 -57.9L1421.32 -68.47" stroke="#132e65" stroke-width="1.5"></path><path d="M1251.15 101.56L1251.15 101.56" stroke="#132e65" stroke-width="1.5"></path><path d="M1251.15 101.56L1293.52 -57.9" stroke="#132e65" stroke-width="1.5"></path><path d="M1251.15 101.56L1119.53 203.69" stroke="#132e65" stroke-width="1.5"></path><path d="M1251.15 101.56L1430.65 71.51" stroke="#132e65" stroke-width="1.5"></path><path d="M1251.15 101.56L1419.61 237.57" stroke="#132e65" stroke-width="1.5"></path><path d="M1276.46 360.37L1276.46 360.37" stroke="#132e65" stroke-width="1.5"></path><path d="M1276.46 360.37L1403.05 359.01" stroke="#132e65" stroke-width="1.5"></path><path d="M1276.46 360.37L1311.98 525.49" stroke="#132e65" stroke-width="1.5"></path><path d="M1276.46 360.37L1419.61 237.57" stroke="#132e65" stroke-width="1.5"></path><path d="M1276.46 360.37L1119.53 203.69" stroke="#132e65" stroke-width="1.5"></path><path d="M1311.98 525.49L1311.98 525.49" stroke="#132e65" stroke-width="1.5"></path><path d="M1311.98 525.49L1439.83 536.3" stroke="#132e65" stroke-width="1.5"></path><path d="M1311.98 525.49L1406.14 659.78" stroke="#132e65" stroke-width="1.5"></path><path d="M1311.98 525.49L1303.83 703.01" stroke="#132e65" stroke-width="1.5"></path><path d="M1311.98 525.49L1403.05 359.01" stroke="#132e65" stroke-width="1.5"></path><path d="M1303.83 703.01L1303.83 703.01" stroke="#132e65" stroke-width="1.5"></path><path d="M1303.83 703.01L1406.14 659.78" stroke="#132e65" stroke-width="1.5"></path><path d="M1303.83 703.01L1439.83 536.3" stroke="#132e65" stroke-width="1.5"></path><path d="M1421.32 -68.47L1421.32 -68.47" stroke="#132e65" stroke-width="1.5"></path><path d="M1421.32 -68.47L1430.65 71.51" stroke="#132e65" stroke-width="1.5"></path><path d="M1421.32 -68.47L1593.46 -62.43" stroke="#132e65" stroke-width="1.5"></path><path d="M1421.32 -68.47L1579.61 89.17" stroke="#132e65" stroke-width="1.5"></path><path d="M1430.65 71.51L1430.65 71.51" stroke="#132e65" stroke-width="1.5"></path><path d="M1430.65 71.51L1579.61 89.17" stroke="#132e65" stroke-width="1.5"></path><path d="M1430.65 71.51L1419.61 237.57" stroke="#132e65" stroke-width="1.5"></path><path d="M1419.61 237.57L1419.61 237.57" stroke="#132e65" stroke-width="1.5"></path><path d="M1419.61 237.57L1403.05 359.01" stroke="#132e65" stroke-width="1.5"></path><path d="M1419.61 237.57L1588.35 193.3" stroke="#132e65" stroke-width="1.5"></path><path d="M1403.05 359.01L1403.05 359.01" stroke="#132e65" stroke-width="1.5"></path><path d="M1403.05 359.01L1439.83 536.3" stroke="#132e65" stroke-width="1.5"></path><path d="M1439.83 536.3L1439.83 536.3" stroke="#132e65" stroke-width="1.5"></path><path d="M1439.83 536.3L1556.24 557.9" stroke="#132e65" stroke-width="1.5"></path><path d="M1439.83 536.3L1406.14 659.78" stroke="#132e65" stroke-width="1.5"></path><path d="M1439.83 536.3L1557.58 652.11" stroke="#132e65" stroke-width="1.5"></path><path d="M1406.14 659.78L1406.14 659.78" stroke="#132e65" stroke-width="1.5"></path><path d="M1593.46 -62.43L1593.46 -62.43" stroke="#132e65" stroke-width="1.5"></path><path d="M1593.46 -62.43L1579.61 89.17" stroke="#132e65" stroke-width="1.5"></path><path d="M1593.46 -62.43L1430.65 71.51" stroke="#132e65" stroke-width="1.5"></path><path d="M1593.46 -62.43L1588.35 193.3" stroke="#132e65" stroke-width="1.5"></path><path d="M1579.61 89.17L1579.61 89.17" stroke="#132e65" stroke-width="1.5"></path><path d="M1579.61 89.17L1588.35 193.3" stroke="#132e65" stroke-width="1.5"></path><path d="M1579.61 89.17L1419.61 237.57" stroke="#132e65" stroke-width="1.5"></path><path d="M1588.35 193.3L1588.35 193.3" stroke="#132e65" stroke-width="1.5"></path><path d="M1588.35 193.3L1607.8 355.18" stroke="#132e65" stroke-width="1.5"></path><path d="M1607.8 355.18L1607.8 355.18" stroke="#132e65" stroke-width="1.5"></path><path d="M1607.8 355.18L1403.05 359.01" stroke="#132e65" stroke-width="1.5"></path><path d="M1607.8 355.18L1556.24 557.9" stroke="#132e65" stroke-width="1.5"></path><path d="M1556.24 557.9L1556.24 557.9" stroke="#132e65" stroke-width="1.5"></path><path d="M1556.24 557.9L1557.58 652.11" stroke="#132e65" stroke-width="1.5"></path><path d="M1556.24 557.9L1406.14 659.78" stroke="#132e65" stroke-width="1.5"></path><path d="M1557.58 652.11L1557.58 652.11" stroke="#132e65" stroke-width="1.5"></path><path d="M1557.58 652.11L1406.14 659.78" stroke="#132e65" stroke-width="1.5"></path><path d="M1557.58 652.11L1303.83 703.01" stroke="#132e65" stroke-width="1.5"></path><path d="M1557.58 652.11L1311.98 525.49" stroke="#132e65" stroke-width="1.5"></path><circle r="5" cx="-67.26" cy="514.94" fill="#132e65"></circle><circle r="5" cx="-66.56" cy="658.01" fill="#132e65"></circle><circle r="5" cx="57.72" cy="398.96" fill="#132e65"></circle><circle r="5" cx="37.54" cy="663.94" fill="#132e65"></circle><circle r="5" cx="244.06" cy="377.12" fill="#132e65"></circle><circle r="5" cx="238.68" cy="494.92" fill="#132e65"></circle><circle r="5" cx="348.96" cy="394.54" fill="#132e65"></circle><circle r="5" cx="363.01" cy="507.43" fill="#132e65"></circle><circle r="5" cx="344.82" cy="673.38" fill="#132e65"></circle><circle r="5" cx="527.23" cy="504.95" fill="#132e65"></circle><circle r="5" cx="494.12" cy="649.78" fill="#132e65"></circle><circle r="5" cx="709.95" cy="251.92" fill="#132e65"></circle><circle r="5" cx="661.9" cy="393.21" fill="#132e65"></circle><circle r="5" cx="654.76" cy="555.49" fill="#132e65"></circle><circle r="5" cx="662.72" cy="705.14" fill="#132e65"></circle><circle r="5" cx="799.5" cy="234.67" fill="#132e65"></circle><circle r="5" cx="827.49" cy="348.44" fill="#132e65"></circle><circle r="5" cx="829.48" cy="505.38" fill="#132e65"></circle><circle r="5" cx="807.39" cy="672.42" fill="#132e65"></circle><circle r="5" cx="955.48" cy="-41.34" fill="#132e65"></circle><circle r="5" cx="1000.93" cy="104.15" fill="#132e65"></circle><circle r="5" cx="1007.75" cy="192.09" fill="#132e65"></circle><circle r="5" cx="938.09" cy="399.21" fill="#132e65"></circle><circle r="5" cx="944.82" cy="558" fill="#132e65"></circle><circle r="5" cx="961.97" cy="690.66" fill="#132e65"></circle><circle r="5" cx="1103.23" cy="-74.79" fill="#132e65"></circle><circle r="5" cx="1125.59" cy="41.58" fill="#132e65"></circle><circle r="5" cx="1119.53" cy="203.69" fill="#132e65"></circle><circle r="5" cx="1118.52" cy="368.21" fill="#132e65"></circle><circle r="5" cx="1133.23" cy="524.88" fill="#132e65"></circle><circle r="5" cx="1091.52" cy="640.61" fill="#132e65"></circle><circle r="5" cx="1293.52" cy="-57.9" fill="#132e65"></circle><circle r="5" cx="1251.15" cy="101.56" fill="#132e65"></circle><circle r="5" cx="1276.46" cy="360.37" fill="#132e65"></circle><circle r="5" cx="1311.98" cy="525.49" fill="#132e65"></circle><circle r="5" cx="1303.83" cy="703.01" fill="#132e65"></circle><circle r="5" cx="1421.32" cy="-68.47" fill="#132e65"></circle><circle r="5" cx="1430.65" cy="71.51" fill="#132e65"></circle><circle r="5" cx="1419.61" cy="237.57" fill="#132e65"></circle><circle r="5" cx="1403.05" cy="359.01" fill="#132e65"></circle><circle r="5" cx="1439.83" cy="536.3" fill="#132e65"></circle><circle r="5" cx="1406.14" cy="659.78" fill="#132e65"></circle><circle r="5" cx="1593.46" cy="-62.43" fill="#132e65"></circle><circle r="5" cx="1579.61" cy="89.17" fill="#132e65"></circle><circle r="5" cx="1588.35" cy="193.3" fill="#132e65"></circle><circle r="5" cx="1607.8" cy="355.18" fill="#132e65"></circle><circle r="5" cx="1556.24" cy="557.9" fill="#132e65"></circle><circle r="5" cx="1557.58" cy="652.11" fill="#132e65"></circle><path d="M825.36 687.58L825.36 687.58" stroke="hsl(228.5, 77.2%, 51.5%)" stroke-width="1.5"></path><path d="M825.36 687.58L835.58 528.04" stroke="hsl(228.5, 77.2%, 51.5%)" stroke-width="1.5"></path><path d="M825.36 687.58L993.48 646.73" stroke="hsl(228.5, 77.2%, 51.5%)" stroke-width="1.5"></path><path d="M825.36 687.58L646.56 664.03" stroke="hsl(228.5, 77.2%, 51.5%)" stroke-width="1.5"></path><path d="M825.36 687.58L708.39 511.4" stroke="hsl(228.5, 77.2%, 51.5%)" stroke-width="1.5"></path><path d="M825.36 687.58L1009.69 510.73" stroke="hsl(228.5, 77.2%, 51.5%)" stroke-width="1.5"></path><path d="M1005.17 360.03L1005.17 360.03" stroke="hsl(228.5, 77.2%, 51.5%)" stroke-width="1.5"></path><path d="M1005.17 360.03L1123.53 359.96" stroke="hsl(228.5, 77.2%, 51.5%)" stroke-width="1.5"></path><path d="M1005.17 360.03L1009.69 510.73" stroke="hsl(228.5, 77.2%, 51.5%)" stroke-width="1.5"></path><path d="M1275.94 531.94L1275.94 531.94" stroke="hsl(228.5, 77.2%, 51.5%)" stroke-width="1.5"></path><path d="M1275.94 531.94L1441.36 557.54" stroke="hsl(228.5, 77.2%, 51.5%)" stroke-width="1.5"></path><path d="M1275.94 531.94L1093.41 514.56" stroke="hsl(228.5, 77.2%, 51.5%)" stroke-width="1.5"></path><path d="M1275.94 531.94L1401.84 388.05" stroke="hsl(228.5, 77.2%, 51.5%)" stroke-width="1.5"></path><path d="M1275.94 531.94L1302.15 340.2" stroke="hsl(228.5, 77.2%, 51.5%)" stroke-width="1.5"></path><path d="M1275.94 531.94L1447.3 645.91" stroke="hsl(228.5, 77.2%, 51.5%)" stroke-width="1.5"></path><path d="M1275.94 531.94L1139.79 689.2" stroke="hsl(228.5, 77.2%, 51.5%)" stroke-width="1.5"></path><path d="M1439.2 209.49L1439.2 209.49" stroke="hsl(228.5, 77.2%, 51.5%)" stroke-width="1.5"></path><path d="M1439.2 209.49L1539.58 96.75" stroke="hsl(228.5, 77.2%, 51.5%)" stroke-width="1.5"></path><path d="M1439.2 209.49L1601.46 253.99" stroke="hsl(228.5, 77.2%, 51.5%)" stroke-width="1.5"></path><path d="M1439.2 209.49L1265.66 218.25" stroke="hsl(228.5, 77.2%, 51.5%)" stroke-width="1.5"></path><path d="M1439.2 209.49L1401.84 388.05" stroke="hsl(228.5, 77.2%, 51.5%)" stroke-width="1.5"></path><path d="M-63.31 523.04L-63.31 523.04" stroke="hsl(228.5, 77.2%, 51.5%)" stroke-width="1.5"></path><path d="M-63.31 523.04L-55.49 644.54" stroke="hsl(228.5, 77.2%, 51.5%)" stroke-width="1.5"></path><path d="M-63.31 523.04L75.23 528.36" stroke="hsl(228.5, 77.2%, 51.5%)" stroke-width="1.5"></path><path d="M-63.31 523.04L85.99 701.93" stroke="hsl(228.5, 77.2%, 51.5%)" stroke-width="1.5"></path><path d="M-63.31 523.04L251.15 516.03" stroke="hsl(228.5, 77.2%, 51.5%)" stroke-width="1.5"></path><path d="M-55.49 644.54L-55.49 644.54" stroke="hsl(228.5, 77.2%, 51.5%)" stroke-width="1.5"></path><path d="M-55.49 644.54L85.99 701.93" stroke="hsl(228.5, 77.2%, 51.5%)" stroke-width="1.5"></path><path d="M-55.49 644.54L75.23 528.36" stroke="hsl(228.5, 77.2%, 51.5%)" stroke-width="1.5"></path><path d="M75.23 528.36L75.23 528.36" stroke="hsl(228.5, 77.2%, 51.5%)" stroke-width="1.5"></path><path d="M75.23 528.36L85.99 701.93" stroke="hsl(228.5, 77.2%, 51.5%)" stroke-width="1.5"></path><path d="M75.23 528.36L251.15 516.03" stroke="hsl(228.5, 77.2%, 51.5%)" stroke-width="1.5"></path><path d="M85.99 701.93L85.99 701.93" stroke="hsl(228.5, 77.2%, 51.5%)" stroke-width="1.5"></path><path d="M85.99 701.93L251.15 516.03" stroke="hsl(228.5, 77.2%, 51.5%)" stroke-width="1.5"></path><path d="M251.15 516.03L251.15 516.03" stroke="hsl(228.5, 77.2%, 51.5%)" stroke-width="1.5"></path><path d="M251.15 516.03L347.39 535.56" stroke="hsl(228.5, 77.2%, 51.5%)" stroke-width="1.5"></path><path d="M347.39 535.56L347.39 535.56" stroke="hsl(228.5, 77.2%, 51.5%)" stroke-width="1.5"></path><path d="M347.39 535.56L75.23 528.36" stroke="hsl(228.5, 77.2%, 51.5%)" stroke-width="1.5"></path><path d="M347.39 535.56L85.99 701.93" stroke="hsl(228.5, 77.2%, 51.5%)" stroke-width="1.5"></path><path d="M347.39 535.56L646.56 664.03" stroke="hsl(228.5, 77.2%, 51.5%)" stroke-width="1.5"></path><path d="M347.39 535.56L708.39 511.4" stroke="hsl(228.5, 77.2%, 51.5%)" stroke-width="1.5"></path><path d="M710.26 384.92L710.26 384.92" stroke="hsl(228.5, 77.2%, 51.5%)" stroke-width="1.5"></path><path d="M710.26 384.92L795 370.29" stroke="hsl(228.5, 77.2%, 51.5%)" stroke-width="1.5"></path><path d="M708.39 511.4L708.39 511.4" stroke="hsl(228.5, 77.2%, 51.5%)" stroke-width="1.5"></path><path d="M708.39 511.4L710.26 384.92" stroke="hsl(228.5, 77.2%, 51.5%)" stroke-width="1.5"></path><path d="M708.39 511.4L835.58 528.04" stroke="hsl(228.5, 77.2%, 51.5%)" stroke-width="1.5"></path><path d="M708.39 511.4L646.56 664.03" stroke="hsl(228.5, 77.2%, 51.5%)" stroke-width="1.5"></path><path d="M646.56 664.03L646.56 664.03" stroke="hsl(228.5, 77.2%, 51.5%)" stroke-width="1.5"></path><path d="M795 370.29L795 370.29" stroke="hsl(228.5, 77.2%, 51.5%)" stroke-width="1.5"></path><path d="M795 370.29L835.58 528.04" stroke="hsl(228.5, 77.2%, 51.5%)" stroke-width="1.5"></path><path d="M795 370.29L708.39 511.4" stroke="hsl(228.5, 77.2%, 51.5%)" stroke-width="1.5"></path><path d="M795 370.29L1005.17 360.03" stroke="hsl(228.5, 77.2%, 51.5%)" stroke-width="1.5"></path><path d="M795 370.29L1009.69 510.73" stroke="hsl(228.5, 77.2%, 51.5%)" stroke-width="1.5"></path><path d="M795 370.29L825.36 687.58" stroke="hsl(228.5, 77.2%, 51.5%)" stroke-width="1.5"></path><path d="M835.58 528.04L835.58 528.04" stroke="hsl(228.5, 77.2%, 51.5%)" stroke-width="1.5"></path><path d="M1009.69 510.73L1009.69 510.73" stroke="hsl(228.5, 77.2%, 51.5%)" stroke-width="1.5"></path><path d="M1009.69 510.73L1093.41 514.56" stroke="hsl(228.5, 77.2%, 51.5%)" stroke-width="1.5"></path><path d="M1009.69 510.73L993.48 646.73" stroke="hsl(228.5, 77.2%, 51.5%)" stroke-width="1.5"></path><path d="M1009.69 510.73L835.58 528.04" stroke="hsl(228.5, 77.2%, 51.5%)" stroke-width="1.5"></path><path d="M1009.69 510.73L1123.53 359.96" stroke="hsl(228.5, 77.2%, 51.5%)" stroke-width="1.5"></path><path d="M1009.69 510.73L1139.79 689.2" stroke="hsl(228.5, 77.2%, 51.5%)" stroke-width="1.5"></path><path d="M993.48 646.73L993.48 646.73" stroke="hsl(228.5, 77.2%, 51.5%)" stroke-width="1.5"></path><path d="M993.48 646.73L1139.79 689.2" stroke="hsl(228.5, 77.2%, 51.5%)" stroke-width="1.5"></path><path d="M993.48 646.73L1093.41 514.56" stroke="hsl(228.5, 77.2%, 51.5%)" stroke-width="1.5"></path><path d="M1152.49 74.87L1152.49 74.87" stroke="hsl(228.5, 77.2%, 51.5%)" stroke-width="1.5"></path><path d="M1152.49 74.87L1296.78 52.06" stroke="hsl(228.5, 77.2%, 51.5%)" stroke-width="1.5"></path><path d="M1152.49 74.87L1257.52 -45.34" stroke="hsl(228.5, 77.2%, 51.5%)" stroke-width="1.5"></path><path d="M1152.49 74.87L1108.88 249.91" stroke="hsl(228.5, 77.2%, 51.5%)" stroke-width="1.5"></path><path d="M1108.88 249.91L1108.88 249.91" stroke="hsl(228.5, 77.2%, 51.5%)" stroke-width="1.5"></path><path d="M1108.88 249.91L1123.53 359.96" stroke="hsl(228.5, 77.2%, 51.5%)" stroke-width="1.5"></path><path d="M1108.88 249.91L1005.17 360.03" stroke="hsl(228.5, 77.2%, 51.5%)" stroke-width="1.5"></path><path d="M1108.88 249.91L1265.66 218.25" stroke="hsl(228.5, 77.2%, 51.5%)" stroke-width="1.5"></path><path d="M1108.88 249.91L1302.15 340.2" stroke="hsl(228.5, 77.2%, 51.5%)" stroke-width="1.5"></path><path d="M1123.53 359.96L1123.53 359.96" stroke="hsl(228.5, 77.2%, 51.5%)" stroke-width="1.5"></path><path d="M1123.53 359.96L1093.41 514.56" stroke="hsl(228.5, 77.2%, 51.5%)" stroke-width="1.5"></path><path d="M1123.53 359.96L1302.15 340.2" stroke="hsl(228.5, 77.2%, 51.5%)" stroke-width="1.5"></path><path d="M1093.41 514.56L1093.41 514.56" stroke="hsl(228.5, 77.2%, 51.5%)" stroke-width="1.5"></path><path d="M1093.41 514.56L1005.17 360.03" stroke="hsl(228.5, 77.2%, 51.5%)" stroke-width="1.5"></path><path d="M1093.41 514.56L1139.79 689.2" stroke="hsl(228.5, 77.2%, 51.5%)" stroke-width="1.5"></path><path d="M1139.79 689.2L1139.79 689.2" stroke="hsl(228.5, 77.2%, 51.5%)" stroke-width="1.5"></path><path d="M1257.52 -45.34L1257.52 -45.34" stroke="hsl(228.5, 77.2%, 51.5%)" stroke-width="1.5"></path><path d="M1257.52 -45.34L1296.78 52.06" stroke="hsl(228.5, 77.2%, 51.5%)" stroke-width="1.5"></path><path d="M1257.52 -45.34L1451.88 -51.16" stroke="hsl(228.5, 77.2%, 51.5%)" stroke-width="1.5"></path><path d="M1257.52 -45.34L1265.66 218.25" stroke="hsl(228.5, 77.2%, 51.5%)" stroke-width="1.5"></path><path d="M1257.52 -45.34L1439.2 209.49" stroke="hsl(228.5, 77.2%, 51.5%)" stroke-width="1.5"></path><path d="M1296.78 52.06L1296.78 52.06" stroke="hsl(228.5, 77.2%, 51.5%)" stroke-width="1.5"></path><path d="M1296.78 52.06L1265.66 218.25" stroke="hsl(228.5, 77.2%, 51.5%)" stroke-width="1.5"></path><path d="M1265.66 218.25L1265.66 218.25" stroke="hsl(228.5, 77.2%, 51.5%)" stroke-width="1.5"></path><path d="M1265.66 218.25L1302.15 340.2" stroke="hsl(228.5, 77.2%, 51.5%)" stroke-width="1.5"></path><path d="M1265.66 218.25L1152.49 74.87" stroke="hsl(228.5, 77.2%, 51.5%)" stroke-width="1.5"></path><path d="M1302.15 340.2L1302.15 340.2" stroke="hsl(228.5, 77.2%, 51.5%)" stroke-width="1.5"></path><path d="M1302.15 340.2L1401.84 388.05" stroke="hsl(228.5, 77.2%, 51.5%)" stroke-width="1.5"></path><path d="M1302.15 340.2L1439.2 209.49" stroke="hsl(228.5, 77.2%, 51.5%)" stroke-width="1.5"></path><path d="M1451.88 -51.16L1451.88 -51.16" stroke="hsl(228.5, 77.2%, 51.5%)" stroke-width="1.5"></path><path d="M1451.88 -51.16L1571.75 -100.09" stroke="hsl(228.5, 77.2%, 51.5%)" stroke-width="1.5"></path><path d="M1451.88 -51.16L1539.58 96.75" stroke="hsl(228.5, 77.2%, 51.5%)" stroke-width="1.5"></path><path d="M1401.84 388.05L1401.84 388.05" stroke="hsl(228.5, 77.2%, 51.5%)" stroke-width="1.5"></path><path d="M1401.84 388.05L1545.75 372.54" stroke="hsl(228.5, 77.2%, 51.5%)" stroke-width="1.5"></path><path d="M1401.84 388.05L1441.36 557.54" stroke="hsl(228.5, 77.2%, 51.5%)" stroke-width="1.5"></path><path d="M1441.36 557.54L1441.36 557.54" stroke="hsl(228.5, 77.2%, 51.5%)" stroke-width="1.5"></path><path d="M1441.36 557.54L1447.3 645.91" stroke="hsl(228.5, 77.2%, 51.5%)" stroke-width="1.5"></path><path d="M1441.36 557.54L1544.69 553.07" stroke="hsl(228.5, 77.2%, 51.5%)" stroke-width="1.5"></path><path d="M1441.36 557.54L1550.17 692.46" stroke="hsl(228.5, 77.2%, 51.5%)" stroke-width="1.5"></path><path d="M1441.36 557.54L1545.75 372.54" stroke="hsl(228.5, 77.2%, 51.5%)" stroke-width="1.5"></path><path d="M1447.3 645.91L1447.3 645.91" stroke="hsl(228.5, 77.2%, 51.5%)" stroke-width="1.5"></path><path d="M1447.3 645.91L1550.17 692.46" stroke="hsl(228.5, 77.2%, 51.5%)" stroke-width="1.5"></path><path d="M1571.75 -100.09L1571.75 -100.09" stroke="hsl(228.5, 77.2%, 51.5%)" stroke-width="1.5"></path><path d="M1571.75 -100.09L1539.58 96.75" stroke="hsl(228.5, 77.2%, 51.5%)" stroke-width="1.5"></path><path d="M1539.58 96.75L1539.58 96.75" stroke="hsl(228.5, 77.2%, 51.5%)" stroke-width="1.5"></path><path d="M1539.58 96.75L1601.46 253.99" stroke="hsl(228.5, 77.2%, 51.5%)" stroke-width="1.5"></path><path d="M1539.58 96.75L1296.78 52.06" stroke="hsl(228.5, 77.2%, 51.5%)" stroke-width="1.5"></path><path d="M1601.46 253.99L1601.46 253.99" stroke="hsl(228.5, 77.2%, 51.5%)" stroke-width="1.5"></path><path d="M1601.46 253.99L1545.75 372.54" stroke="hsl(228.5, 77.2%, 51.5%)" stroke-width="1.5"></path><path d="M1601.46 253.99L1401.84 388.05" stroke="hsl(228.5, 77.2%, 51.5%)" stroke-width="1.5"></path><path d="M1601.46 253.99L1544.69 553.07" stroke="hsl(228.5, 77.2%, 51.5%)" stroke-width="1.5"></path><path d="M1601.46 253.99L1302.15 340.2" stroke="hsl(228.5, 77.2%, 51.5%)" stroke-width="1.5"></path><path d="M1545.75 372.54L1545.75 372.54" stroke="hsl(228.5, 77.2%, 51.5%)" stroke-width="1.5"></path><path d="M1545.75 372.54L1544.69 553.07" stroke="hsl(228.5, 77.2%, 51.5%)" stroke-width="1.5"></path><path d="M1545.75 372.54L1439.2 209.49" stroke="hsl(228.5, 77.2%, 51.5%)" stroke-width="1.5"></path><path d="M1544.69 553.07L1544.69 553.07" stroke="hsl(228.5, 77.2%, 51.5%)" stroke-width="1.5"></path><path d="M1544.69 553.07L1447.3 645.91" stroke="hsl(228.5, 77.2%, 51.5%)" stroke-width="1.5"></path><path d="M1544.69 553.07L1550.17 692.46" stroke="hsl(228.5, 77.2%, 51.5%)" stroke-width="1.5"></path><path d="M1544.69 553.07L1401.84 388.05" stroke="hsl(228.5, 77.2%, 51.5%)" stroke-width="1.5"></path><path d="M1550.17 692.46L1550.17 692.46" stroke="hsl(228.5, 77.2%, 51.5%)" stroke-width="1.5"></path><path d="M1550.17 692.46L1275.94 531.94" stroke="hsl(228.5, 77.2%, 51.5%)" stroke-width="1.5"></path><path d="M1550.17 692.46L1545.75 372.54" stroke="hsl(228.5, 77.2%, 51.5%)" stroke-width="1.5"></path><circle r="25" cx="825.36" cy="687.58" fill="url(&quot;#SvgjsRadialGradient1001&quot;)"></circle><circle r="25" cx="1005.17" cy="360.03" fill="url(&quot;#SvgjsRadialGradient1001&quot;)"></circle><circle r="25" cx="1275.94" cy="531.94" fill="url(&quot;#SvgjsRadialGradient1001&quot;)"></circle><circle r="25" cx="1439.2" cy="209.49" fill="url(&quot;#SvgjsRadialGradient1001&quot;)"></circle><circle r="5" cx="-63.31" cy="523.04" fill="#8b9ad9"></circle><circle r="5" cx="-55.49" cy="644.54" fill="#8b9ad9"></circle><circle r="5" cx="75.23" cy="528.36" fill="#8b9ad9"></circle><circle r="5" cx="85.99" cy="701.93" fill="#8b9ad9"></circle><circle r="5" cx="251.15" cy="516.03" fill="#8b9ad9"></circle><circle r="5" cx="347.39" cy="535.56" fill="#8b9ad9"></circle><circle r="5" cx="710.26" cy="384.92" fill="#8b9ad9"></circle><circle r="5" cx="708.39" cy="511.4" fill="#8b9ad9"></circle><circle r="5" cx="646.56" cy="664.03" fill="#8b9ad9"></circle><circle r="5" cx="795" cy="370.29" fill="#8b9ad9"></circle><circle r="5" cx="835.58" cy="528.04" fill="#8b9ad9"></circle><circle r="5" cx="1009.69" cy="510.73" fill="#8b9ad9"></circle><circle r="5" cx="993.48" cy="646.73" fill="#8b9ad9"></circle><circle r="5" cx="1152.49" cy="74.87" fill="#8b9ad9"></circle><circle r="5" cx="1108.88" cy="249.91" fill="#8b9ad9"></circle><circle r="5" cx="1123.53" cy="359.96" fill="#8b9ad9"></circle><circle r="5" cx="1093.41" cy="514.56" fill="#8b9ad9"></circle><circle r="5" cx="1139.79" cy="689.2" fill="#8b9ad9"></circle><circle r="5" cx="1257.52" cy="-45.34" fill="#8b9ad9"></circle><circle r="5" cx="1296.78" cy="52.06" fill="#8b9ad9"></circle><circle r="5" cx="1265.66" cy="218.25" fill="#8b9ad9"></circle><circle r="5" cx="1302.15" cy="340.2" fill="#8b9ad9"></circle><circle r="5" cx="1451.88" cy="-51.16" fill="#8b9ad9"></circle><circle r="5" cx="1401.84" cy="388.05" fill="#8b9ad9"></circle><circle r="5" cx="1441.36" cy="557.54" fill="#8b9ad9"></circle><circle r="5" cx="1447.3" cy="645.91" fill="#8b9ad9"></circle><circle r="5" cx="1571.75" cy="-100.09" fill="#8b9ad9"></circle><circle r="5" cx="1539.58" cy="96.75" fill="#8b9ad9"></circle><circle r="5" cx="1601.46" cy="253.99" fill="#8b9ad9"></circle><circle r="5" cx="1545.75" cy="372.54" fill="#8b9ad9"></circle><circle r="5" cx="1544.69" cy="553.07" fill="#8b9ad9"></circle><circle r="5" cx="1550.17" cy="692.46" fill="#8b9ad9"></circle></g><defs><mask id="SvgjsMask1000"><rect width="1440" height="560" fill="#ffffff"></rect></mask><radialGradient id="SvgjsRadialGradient1001"><stop stop-color="#ffffff" offset="0.1"></stop><stop stop-color="#1735b3" offset="0.2"></stop><stop stop-color="rgba(23, 53, 179, 0)" offset="1"></stop></radialGradient></defs></svg>