<svg xmlns="http://www.w3.org/2000/svg" version="1.1" xmlns:xlink="http://www.w3.org/1999/xlink" xmlns:svgjs="http://svgjs.dev/svgjs" width="1440" height="560" preserveAspectRatio="none" viewBox="0 0 1440 560"><g mask="url(&quot;#SvgjsMask1005&quot;)" fill="none"><rect width="1440" height="560" x="0" y="0" fill="#0e2a47"></rect><path d="M844.66 18.86L842.93 6.17 854.92 1.69 853.18-11 865.18-15.48 863.44-28.17 875.44-32.65" stroke="#e73635" stroke-width="1" stroke-dasharray="4, 4"></path><rect width="324" height="324" clip-path="url(&quot;#SvgjsClipPath1006&quot;)" x="1170.76" y="-106.4" fill="url(&quot;#SvgjsPattern1007&quot;)" transform="rotate(216.5, 1332.76, 55.6)"></rect><rect width="60" height="60" clip-path="url(&quot;#SvgjsClipPath1008&quot;)" x="72.5" y="89.95" fill="url(&quot;#SvgjsPattern1009&quot;)" transform="rotate(340.88, 102.5, 119.95)"></rect><path d="M406.46 482.76a5.6 5.6 0 1 0-4.31 10.34 5.6 5.6 0 1 0 4.31-10.34zM400.3 497.53a5.6 5.6 0 1 0-4.31 10.34 5.6 5.6 0 1 0 4.31-10.34zM394.14 512.3a5.6 5.6 0 1 0-4.31 10.33 5.6 5.6 0 1 0 4.31-10.33zM387.98 527.06a5.6 5.6 0 1 0-4.31 10.34 5.6 5.6 0 1 0 4.31-10.34zM404.01 447.07a5.6 5.6 0 1 0-4.31 10.34 5.6 5.6 0 1 0 4.31-10.34zM397.85 461.84a5.6 5.6 0 1 0-4.31 10.33 5.6 5.6 0 1 0 4.31-10.33zM391.69 476.6a5.6 5.6 0 1 0-4.31 10.34 5.6 5.6 0 1 0 4.31-10.34zM385.54 491.37a5.6 5.6 0 1 0-4.32 10.34 5.6 5.6 0 1 0 4.32-10.34z" fill="#e73635"></path><rect width="81.6" height="81.6" clip-path="url(&quot;#SvgjsClipPath1010&quot;)" x="178.43" y="198.84" fill="url(&quot;#SvgjsPattern1011&quot;)" transform="rotate(121.88, 219.23, 239.64)"></rect><rect width="216" height="216" clip-path="url(&quot;#SvgjsClipPath1012&quot;)" x="-68.25" y="-47.8" fill="url(&quot;#SvgjsPattern1013&quot;)" transform="rotate(148.03, 39.75, 60.2)"></rect><path d="M1250.18 257.52L1258.11 247.47 1269.66 253 1277.59 242.94 1289.15 248.47 1297.08 238.41 1308.63 243.94M1251.99 265.31L1259.92 255.26 1271.47 260.79 1279.4 250.73 1290.96 256.26 1298.89 246.21 1310.44 251.74M1253.8 273.11L1261.73 263.05 1273.29 268.58 1281.22 258.52 1292.77 264.05 1300.7 254 1312.25 259.53" stroke="#d3b714" stroke-width="2.42" stroke-dasharray="4, 4"></path><rect width="352.8" height="352.8" clip-path="url(&quot;#SvgjsClipPath1014&quot;)" x="725.43" y="90.08" fill="url(&quot;#SvgjsPattern1015&quot;)" transform="rotate(318.42, 901.83, 266.48)"></rect><rect width="189.28" height="189.28" clip-path="url(&quot;#SvgjsClipPath1016&quot;)" x="268.18" y="126.38" fill="url(&quot;#SvgjsPattern1017&quot;)" transform="rotate(192.64, 362.82, 221.02)"></rect><rect width="60" height="60" clip-path="url(&quot;#SvgjsClipPath1018&quot;)" x="123.05" y="447.94" fill="url(&quot;#SvgjsPattern1019&quot;)" transform="rotate(23.12, 153.05, 477.94)"></rect><rect width="225.72" height="225.72" clip-path="url(&quot;#SvgjsClipPath1020&quot;)" x="891.3" y="-34.01" fill="url(&quot;#SvgjsPattern1021&quot;)" transform="rotate(344.41, 1004.16, 78.85)"></rect><rect width="120" height="120" clip-path="url(&quot;#SvgjsClipPath1022&quot;)" x="994.61" y="477.27" fill="url(&quot;#SvgjsPattern1023&quot;)" transform="rotate(358.48, 1054.61, 537.27)"></rect></g><defs><mask id="SvgjsMask1005"><rect width="1440" height="560" fill="#ffffff"></rect></mask><pattern x="0" y="0" width="6" height="6" patternUnits="userSpaceOnUse" id="SvgjsPattern1007"><path d="M3 1L3 5M1 3L5 3" stroke="#e73635" fill="none" stroke-width="1.78"></path></pattern><clipPath id="SvgjsClipPath1006"><circle r="81" cx="1332.76" cy="55.6"></circle></clipPath><pattern x="0" y="0" width="6" height="6" patternUnits="userSpaceOnUse" id="SvgjsPattern1009"><path d="M3 1L3 5M1 3L5 3" stroke="#e73635" fill="none" stroke-width="1"></path></pattern><clipPath id="SvgjsClipPath1008"><circle r="15" cx="102.5" cy="119.95"></circle></clipPath><pattern x="0" y="0" width="8.16" height="8.16" patternUnits="userSpaceOnUse" id="SvgjsPattern1011"><path d="M4.08 1L4.08 7.16M1 4.08L7.16 4.08" stroke="#e73635" fill="none" stroke-width="1"></path></pattern><clipPath id="SvgjsClipPath1010"><circle r="20.4" cx="219.23" cy="239.64"></circle></clipPath><pattern x="0" y="0" width="6" height="6" patternUnits="userSpaceOnUse" id="SvgjsPattern1013"><path d="M3 1L3 5M1 3L5 3" stroke="#e73635" fill="none" stroke-width="1"></path></pattern><clipPath id="SvgjsClipPath1012"><circle r="54" cx="39.75" cy="60.2"></circle></clipPath><pattern x="0" y="0" width="9.8" height="9.8" patternUnits="userSpaceOnUse" id="SvgjsPattern1015"><path d="M0 9.8L4.9 0L9.8 9.8" stroke="#e73635" fill="none"></path></pattern><clipPath id="SvgjsClipPath1014"><circle r="88.2" cx="901.83" cy="266.48"></circle></clipPath><pattern x="0" y="0" width="6.76" height="6.76" patternUnits="userSpaceOnUse" id="SvgjsPattern1017"><path d="M0 6.76L3.38 0L6.76 6.76" stroke="#e73635" fill="none"></path></pattern><clipPath id="SvgjsClipPath1016"><circle r="47.32" cx="362.82" cy="221.02"></circle></clipPath><pattern x="0" y="0" width="6" height="6" patternUnits="userSpaceOnUse" id="SvgjsPattern1019"><path d="M3 1L3 5M1 3L5 3" stroke="#d3b714" fill="none" stroke-width="1.12"></path></pattern><clipPath id="SvgjsClipPath1018"><circle r="15" cx="153.05" cy="477.94"></circle></clipPath><pattern x="0" y="0" width="10.26" height="10.26" patternUnits="userSpaceOnUse" id="SvgjsPattern1021"><path d="M5.13 1L5.13 9.26M1 5.13L9.26 5.13" stroke="#e73635" fill="none" stroke-width="3.94"></path></pattern><clipPath id="SvgjsClipPath1020"><circle r="56.43" cx="1004.16" cy="78.85"></circle></clipPath><pattern x="0" y="0" width="6" height="6" patternUnits="userSpaceOnUse" id="SvgjsPattern1023"><path d="M0 6L3 0L6 6" stroke="#e73635" fill="none"></path></pattern><clipPath id="SvgjsClipPath1022"><circle r="30" cx="1054.61" cy="537.27"></circle></clipPath></defs></svg>